<!-- This Source Code Form is subject to the terms of the Mozilla Public
   - License, v. 2.0. If a copy of the MPL was not distributed with this
   - file, You can obtain one at http://mozilla.org/MPL/2.0/. -->
<svg fill="#000000" xmlns="http://www.w3.org/2000/svg" xmlns:xlink="http://www.w3.org/1999/xlink" viewBox="0 0 100 100" version="1.1" x="0px" y="0px">
  <g fill="#000000">
    <path d="M12,43 C10.3431458,43 9,46.1340068 9,50 C9,53.8659932 10.3431458,57 12,57 L57,57 C57,57 67.3854993,65.3186377 67.5883278,65.5001935 C68.310911,66.1469915 69.1179023,66.5 70,66.5 C74.0362755,66.5 76.5,59.1088266 76.5,50 C76.5,40.8911734 74.0362755,33.5 70,33.5 C69.1102071,33.5 68.2968366,33.8591945 67.569436,34.5168012 C67.3733119,34.6941073 57,43 57,43 L12,43 Z M73.5,50 C73.5,43.0964406 72.1568542,37.5 70.5,37.5 C68.8431458,37.5 67.5,43.0964406 67.5,50 C67.5,56.9035594 68.8431458,62.5 70.5,62.5 C72.1568542,62.5 73.5,56.9035594 73.5,50 Z M79.1120556,33.6544511 L93.641424,22.4093626 C94.0781789,22.0713336 94.158212,21.4432471 93.8201831,21.0064922 C93.4821541,20.5697373 92.8540676,20.4897041 92.4173127,20.8277331 L77.8879444,32.0728216 C77.4511895,32.4108506 77.3711563,33.0389371 77.7091853,33.475692 C78.0472143,33.9124469 78.6753007,33.9924801 79.1120556,33.6544511 Z M77.8879444,68.3362693 L92.4173127,79.5813578 C92.8540676,79.9193868 93.4821541,79.8393536 93.8201831,79.4025987 C94.158212,78.9658438 94.0781789,78.3377573 93.641424,77.9997283 L79.1120556,66.7546398 C78.6753007,66.4166108 78.0472143,66.496644 77.7091853,66.9333989 C77.3711563,67.3701538 77.4511895,67.9982403 77.8879444,68.3362693 Z"/>
  </g>
</svg>
